<?xml version="1.0" encoding="UTF-8" standalone="no"?>
<!-- Created with Inkscape (http://www.inkscape.org/) -->

<svg
   width="200"
   height="1000"
   viewBox="0 0 52.916666 264.58334"
   version="1.1"
   id="svg5"
   inkscape:version="1.2.1 (9c6d41e410, 2022-07-14)"
   sodipodi:docname="hours-hand.svg"
   xml:space="preserve"
   xmlns:inkscape="http://www.inkscape.org/namespaces/inkscape"
   xmlns:sodipodi="http://sodipodi.sourceforge.net/DTD/sodipodi-0.dtd"
   xmlns:xlink="http://www.w3.org/1999/xlink"
   xmlns="http://www.w3.org/2000/svg"
   xmlns:svg="http://www.w3.org/2000/svg"><sodipodi:namedview
     id="namedview7"
     pagecolor="#ffffff"
     bordercolor="#666666"
     borderopacity="1.0"
     inkscape:showpageshadow="2"
     inkscape:pageopacity="0.0"
     inkscape:pagecheckerboard="0"
     inkscape:deskcolor="#d1d1d1"
     inkscape:document-units="mm"
     showgrid="true"
     inkscape:zoom="1.1893044"
     inkscape:cx="-54.233382"
     inkscape:cy="354.82926"
     inkscape:window-width="1920"
     inkscape:window-height="1027"
     inkscape:window-x="-8"
     inkscape:window-y="-8"
     inkscape:window-maximized="1"
     inkscape:current-layer="layer1"><inkscape:grid
       type="xygrid"
       id="grid182"
       originx="26.458333"
       originy="132.29167"
       spacingx="6.6145834"
       spacingy="6.6145834"
       empcolor="#0077b2"
       empopacity="0.50196078"
       color="#0099e5"
       opacity="0.10196078" /></sodipodi:namedview><defs
     id="defs2"><linearGradient
       inkscape:collect="always"
       id="linearGradient14214"><stop
         style="stop-color:#e5b045;stop-opacity:1;"
         offset="0"
         id="stop14210" /><stop
         style="stop-color:#cc9d3e;stop-opacity:1;"
         offset="1"
         id="stop14212" /></linearGradient><radialGradient
       inkscape:collect="always"
       xlink:href="#linearGradient14214"
       id="radialGradient14216"
       cx="25.974184"
       cy="79.478711"
       fx="25.974184"
       fy="79.478711"
       r="24.671712"
       gradientTransform="matrix(0.92786265,0,0,1.7664531,1.8737087,-57.741706)"
       gradientUnits="userSpaceOnUse" /></defs><g
     inkscape:label="hours"
     inkscape:groupmode="layer"
     id="layer1"><path
       id="path11168"
       style="fill:url(#radialGradient14216);fill-opacity:1;stroke:#000000;stroke-width:0.245497px;stroke-linecap:butt;stroke-linejoin:miter;stroke-opacity:0.2"
       d="m 26.437792,39.200413 c -0.215086,0.01394 -0.903908,4.159488 -0.980549,4.360927 -0.335835,2.547692 -0.611685,3.443314 -1.135424,6.063585 -0.716067,4.061614 -1.496476,10.217853 -1.496476,10.217853 0,0 0.645198,0.385186 0.87746,0.670802 0.30095,0.370094 0.619016,1.290297 0.619016,1.290297 0,0 -1.018168,-0.343689 -1.547781,-0.361532 -0.85355,-0.02877 -1.711178,0.166155 -2.528811,0.412838 -0.560163,0.168994 -1.195445,0.29992 -1.600046,0.722585 -0.320271,0.334586 -0.567934,0.830065 -0.515927,1.290298 0.03054,0.270263 0.464622,0.670802 0.464622,0.670802 0,0 -1.029371,0.133494 -1.445172,0.412837 -0.508439,0.341577 -1.134944,1.444692 -1.134944,1.444692 0,0 0.892687,-0.529069 1.392908,-0.619016 0.814227,-0.146404 1.662019,0.01288 2.477026,0.154874 1.094056,0.190597 2.31106,0.262616 3.199612,0.928764 1.076703,0.807206 1.778081,2.117759 2.167758,3.405792 0.239138,0.790469 0.137475,1.655673 0.0513,2.477026 -0.08664,0.825787 -0.567712,2.425721 -0.567712,2.425721 0,0 -1.074604,-0.734496 -1.651351,-1.032333 -0.397384,-0.205217 -0.791382,-0.506232 -1.238513,-0.515928 -1.099027,-0.02382 -2.178876,0.529429 -3.096043,1.135423 -0.98485,0.650725 -1.868262,1.539635 -2.425721,2.580116 -0.500517,0.934184 -0.813891,2.040688 -0.722106,3.096523 0.08744,1.005837 0.699062,1.902245 1.186728,2.786295 0.525491,0.952595 1.85753,2.683685 1.85753,2.683685 0,0 -2.513173,-0.829146 -3.818629,-0.98055 -1.674875,-0.19424 -3.387379,-0.131075 -5.0571422,0.10309 -0.9338148,0.130957 -1.8767909,0.331873 -2.7349899,0.722586 -0.5297466,0.241169 -1.4451718,0.98055 -1.4451718,0.98055 0,0 0.5583214,0.331259 0.773891,0.567712 0.2703012,0.296479 0.6194963,1.031853 0.6194963,1.031853 0,0 -0.8468592,0.143332 -1.2385132,0.309749 -0.5974221,0.253849 -1.1899041,0.575801 -1.6513508,1.032334 -0.3629564,0.359083 -0.8256755,1.289818 -0.8256755,1.289818 0,0 0.6801663,0.103091 0.9805496,0.257964 0.3582346,0.184699 0.928765,0.77437 0.928765,0.77437 0,0 -0.5859282,1.084544 -0.8256755,1.651351 -0.28399,0.671395 -0.6254312,1.341705 -0.7225859,2.064189 -0.1654585,1.230422 -0.030853,2.508104 0.2579637,3.715539 0.2259446,0.944596 1.1354236,2.683206 1.1354236,2.683206 0,0 -0.5937665,0.85074 -0.722586,1.3421 -0.2312455,0.88205 -0.2879095,1.85437 -0.051305,2.73499 0.2242851,0.83477 1.3416026,2.21906 1.3416026,2.21906 0,0 0.839134,-0.72682 1.1354237,-1.1872 0.1503941,-0.2337 0.1642378,-0.53714 0.3097481,-0.7739 0.2999437,-0.48804 1.1349441,-1.29029 1.1349441,-1.29029 0,0 0.746939,0.77885 1.1872081,1.08411 0.714404,0.49532 2.322153,1.18673 2.322153,1.18673 0,0 -0.421812,0.442 -0.515928,0.72259 -0.202479,0.60364 -0.221205,1.29557 -0.05178,1.90931 0.341583,1.23741 1.108353,2.39406 2.064188,3.25092 0.813408,0.7291 2.941648,1.44517 2.941648,1.44517 0,0 0.195077,1.30173 0.619018,1.75444 0.537269,0.57373 1.710202,0.28965 2.167757,0.92877 0.261121,0.36473 0.249802,0.91819 0.10309,1.34208 -0.28271,0.81683 -1.418768,1.11279 -1.754441,1.90932 -0.367944,0.87304 -0.154874,2.83807 -0.154874,2.83807 1e-6,0 6.219217,2.42214 9.495268,2.58012 2.963065,0.14289 8.772681,-1.49648 8.772681,-1.49648 0,0 -0.181398,-1.68476 0.05179,-2.47702 0.222403,-0.75567 1.092917,-1.23826 1.238513,-2.0124 0.106641,-0.56703 0.01488,-1.22617 -0.309748,-1.70314 -0.330335,-0.48539 -1.496477,-0.92877 -1.496477,-0.92877 0,0 1.162014,-0.36444 1.496477,-0.82567 0.215875,-0.2977 0.206659,-1.08364 0.206659,-1.08364 0,0 1.203771,-1.17 1.806225,-1.75444 1.100165,-1.06727 2.430797,-1.93898 3.302702,-3.19962 0.63984,-0.92512 0.745287,-2.14276 1.341602,-3.09652 0.504456,-0.80683 1.85753,-2.16728 1.85753,-2.16728 0,0 1.184339,2.26258 2.115973,3.09605 0.464542,0.41559 1.651351,0.87746 1.651351,0.87746 0,0 -0.342426,-0.74523 -0.464622,-1.13543 -0.331773,-1.0594 -0.623657,-2.14514 -0.722106,-3.25091 -0.111454,-1.25184 -0.08501,-2.53366 0.154874,-3.76734 0.146419,-0.75306 0.631692,-1.413421 0.77389,-2.167283 0.213719,-1.133039 0.247104,-2.313587 0.103089,-3.457577 -0.147552,-1.172161 -0.489835,-2.331111 -0.980549,-3.405791 -0.340855,-0.746501 -1.341602,-2.064188 -1.341602,-2.064188 0,0 1.273889,-0.526033 1.703135,-1.032335 0.179713,-0.211974 0.309269,-0.77389 0.309269,-0.77389 0,0 -1.522321,-0.455629 -2.270368,-0.722586 -1.01083,-0.360748 -1.952117,-0.924858 -2.992953,-1.186729 -1.158749,-0.291537 -2.36681,-0.448226 -3.561146,-0.412838 -0.890443,0.02639 -2.63142,0.464143 -2.63142,0.464143 0,0 -0.04426,-1.153387 0.103089,-1.702655 0.0897,-0.334357 0.464143,-0.929246 0.464143,-0.929246 0,0 -0.556103,0.405761 -0.87698,0.515928 -0.37737,0.12956 -1.187209,0.154874 -1.187209,0.154874 0,0 1.076573,-1.387601 1.238514,-2.219063 0.238607,-1.225123 -0.07985,-2.52803 -0.464143,-3.715539 -0.374507,-1.157247 -0.892618,-2.341287 -1.75492,-3.199133 -0.665705,-0.662264 -1.547422,-1.209427 -2.477026,-1.342082 -0.644641,-0.09199 -1.330668,0.114189 -1.909315,0.412838 -0.476066,0.24571 -1.186728,1.083639 -1.186728,1.083639 0,0 -0.657237,-1.447556 -0.825676,-2.218583 -0.198802,-0.909968 -0.258517,-1.856791 -0.206659,-2.786774 0.04677,-0.838769 0.03429,-1.755556 0.464623,-2.477027 0.23807,-0.399154 0.624567,-0.804939 1.083639,-0.87746 0.236657,-0.03739 0.670801,0.257964 0.670801,0.257964 l -0.670801,1.135423 c 0,0 1.528245,-0.62866 2.167278,-1.135423 0.391782,-0.310702 0.980549,-1.135424 0.980549,-1.135424 0,0 0.683793,0.502387 1.083639,0.516407 0.517165,0.01813 1.053045,-0.230046 1.445172,-0.567712 0.391251,-0.336929 0.738122,-0.826506 0.773891,-1.341603 0.054,-0.777528 -0.371971,-1.574094 -0.876981,-2.167757 -0.365084,-0.429192 -0.881839,-0.864918 -1.445171,-0.876981 -0.392547,-0.0084 -1.031855,0.567233 -1.031855,0.567233 0,0 -0.699612,-0.615901 -1.135423,-0.722107 -0.755025,-0.183999 -1.56512,0.03059 -2.322153,0.20618 -0.466784,0.108261 -1.342082,0.515927 -1.342082,0.515927 0,0 0.70212,-1.799338 0.929244,-2.734991 0.328263,-1.352241 0.570778,-2.73769 0.619017,-4.128377 0.08256,-2.379908 -0.358465,-3.212301 -0.670801,-5.573069 -0.420147,-2.986994 -0.470144,-7.34604 -1.909315,-10.73426 z m -5.108926,38.239513 c 0,0 0.875093,0.817233 1.135423,1.342082 0.28189,0.568288 0.412838,1.85753 0.412838,1.85753 0,0 0.815547,-0.669658 1.135424,-1.083639 0.433147,-0.560553 1.031854,-1.858009 1.031854,-1.858009 l -0.206179,13.57234 c 0,0 -1.669626,-1.254214 -2.219063,-2.115973 -0.693069,-1.087056 -1.265688,-2.37484 -1.238512,-3.663756 0.0272,-1.290284 1.393387,-3.61245 1.393387,-3.61245 0,0 -1.143882,1.020406 -1.85801,1.083639 -0.547497,0.04848 -1.548261,-0.567712 -1.548261,-0.567712 0,0 -0.489031,-1.652491 -0.361053,-2.477026 0.108556,-0.699401 0.412078,-1.425596 0.928764,-1.909315 0.366114,-0.342738 1.393388,-0.567711 1.393388,-0.567711 z m 11.81742,0.05179 c 0,0 0.748014,1.827517 0.722586,2.786774 -0.02869,1.082226 -0.524337,2.114258 -0.98055,3.096043 -0.162899,0.35056 -0.619017,0.980549 -0.619017,0.980549 0,0 -0.434876,-1.020922 -0.825675,-1.393387 -0.479045,-0.45655 -1.75492,-0.928764 -1.75492,-0.928764 0,0 0.593906,0.993511 0.722586,1.548261 0.202156,0.871506 0.211083,1.802857 0.05178,2.683205 -0.174609,0.96497 -0.59128,1.88691 -1.083639,2.73499 -0.387097,0.666783 -1.445171,1.806225 -1.445171,1.806225 l 0.05178,-13.210807 c 0,0 0.633308,0.506485 0.87698,0.825675 0.378217,0.495448 0.87746,1.651352 0.87746,1.651352 0,0 1.077632,-1.135531 1.703136,-1.599567 0.526053,-0.390272 1.702656,-0.980549 1.702656,-0.980549 z M 9.8207149,89.618878 c -3e-7,0 -0.2719884,1.782649 -0.051305,2.631901 0.1803078,0.693869 1.0836391,1.85753 1.0836391,1.85753 0,0 0.793591,-1.095543 1.290297,-1.547782 0.539796,-0.491456 1.076125,-1.214695 1.805746,-1.238513 0.639824,-0.02089 1.651351,0.980549 1.651351,0.980549 0,0 1.950058,-0.370403 2.890343,-0.154874 1.110666,0.254583 2.253594,0.78432 2.992954,1.651352 0.593142,0.69555 0.924683,1.666008 0.928765,2.580115 0.0032,0.728988 -0.268097,1.494217 -0.722586,2.064189 -0.443351,0.555989 -1.806225,1.135423 -1.806225,1.135423 0,0 -0.162146,-0.66267 -0.361053,-0.928765 -0.286334,-0.383057 -0.664465,-0.794231 -1.135424,-0.87746 -0.391064,-0.06911 -1.134944,0.361053 -1.134944,0.361053 0,0 -0.715364,-0.517022 -1.135424,-0.567711 -0.385285,-0.04649 -0.811386,0.0444 -1.135423,0.257963 -0.390701,0.257512 -0.825675,1.135424 -0.825675,1.135424 0,0 -0.53516,-0.5033 -0.877461,-0.567712 -0.673017,-0.12664 -1.418473,0.07191 -2.012403,0.412837 -0.581055,0.333545 -1.341603,1.496953 -1.341603,1.496953 L 8.324238,98.495129 c 0,0 0.6269681,-0.299256 0.8256755,-0.567712 0.2039106,-0.275478 0.3097482,-0.98055 0.3097482,-0.98055 0,0 -1.1079572,-1.241204 -1.3416027,-2.012882 -0.2342838,-0.773784 -0.2127239,-1.645257 0,-2.425242 0.2941925,-1.078707 1.0833991,-2.322207 1.7026559,-2.889865 z m 30.1894171,0 c 0.206421,0.05161 1.919432,0.382547 2.580116,1.031855 0.918263,0.902451 1.242034,2.29905 1.496477,3.561145 0.200572,0.994884 0.109439,2.035755 0,3.044738 -0.07787,0.717851 -0.464622,2.115493 -0.464622,2.115493 0,0 -1.474687,-0.27843 -2.219063,-0.257963 -1.012036,0.02783 -2.08748,0.06304 -2.992953,0.515927 -0.380905,0.190518 -0.928766,0.877457 -0.928766,0.877457 0,0 -0.716976,-1.142369 -1.238513,-1.548258 -0.492084,-0.382967 -1.080653,-0.737458 -1.703135,-0.773891 -0.450753,-0.02638 -0.915353,0.160547 -1.289818,0.412838 -0.334263,0.225203 -0.77437,0.928765 -0.77437,0.928765 0,0 -0.535283,-0.886033 -0.98055,-1.083639 -0.37735,-0.167466 -1.238514,0 -1.238514,0 l -0.77389,-1.85801 c 0,0 1.43362,-1.475843 2.270368,-2.064188 0.780552,-0.548834 2.52881,-1.341603 2.52881,-1.341603 0,0 1.549363,1.252457 2.477026,1.548261 0.837267,0.26698 1.754748,0.208696 2.631901,0.154874 1.047335,-0.06426 3.096523,-0.567712 3.096523,-0.567712 0,0 -0.420311,-1.520252 -0.774371,-2.219062 -0.452861,-0.893813 -1.702656,-2.477027 -1.702656,-2.477027 z M 12.889906,100.12107 c 0.657642,0.004 1.368934,0.1285 1.368934,0.1285 l 0.928765,1.4447 h 1.85801 c 0,0 -0.418531,1.2529 -0.825675,1.75493 -0.502759,0.61992 -1.179189,1.12224 -1.909315,1.44469 -0.68823,0.30395 -1.485567,0.58026 -2.219063,0.41284 -0.935837,-0.21361 -2.3221522,-1.70266 -2.3221522,-1.70266 0,0 1.2444392,0.0408 1.7026562,-0.30975 0.317758,-0.24313 0.516406,-1.08364 0.516406,-1.08364 l -1.290297,-1.03234 c 0,0 0.886737,-0.8164 1.445171,-0.98056 0.169211,-0.0497 0.386062,-0.0713 0.61614,-0.0758 0.04314,-8.4e-4 0.08658,-0.001 0.13042,-9.5e-4 z m 26.810478,0.90239 c 0,0 0.8243,0.88897 1.341603,1.18722 0.424126,0.24453 1.393387,0.46414 1.393387,0.46414 0,0 -0.656556,0.83326 -1.083639,1.13543 -0.615949,0.43579 -1.328051,0.76321 -2.064189,0.92876 -0.85607,0.19254 -1.833314,0.41536 -2.6319,0.0518 -1.000243,-0.45537 -2.115973,-2.52881 -2.115973,-2.52881 l 1.600046,-0.67081 c 0,0 0.508577,0.63435 0.876981,0.72259 0.462682,0.11084 0.961773,-0.10957 1.393387,-0.30975 0.490006,-0.22726 1.290297,-0.98056 1.290297,-0.98056 z m -10.217853,0.67081 c 0,0 0.867721,1.2568 1.393387,1.80623 0.700402,0.73206 1.45113,1.44363 2.322152,1.96111 0.85685,0.50906 2.786775,1.08364 2.786775,1.08364 0,0 -0.639778,0.73444 -0.774371,1.1872 -0.127442,0.4287 -0.112727,0.9088 0,1.3416 0.168868,0.64836 0.980549,1.75444 0.980549,1.75444 0,0 -2.486627,-0.28138 -3.50888,-0.92876 -0.969446,-0.61394 -1.733085,-1.5924 -2.219063,-2.6319 -0.798876,-1.7088 -0.980549,-5.57356 -0.980549,-5.57356 z m -7.070026,0.82568 c 0,0.20642 0.158706,2.61791 -0.154874,3.87042 -0.287748,1.14932 -0.798866,2.28193 -1.548261,3.19961 -0.520098,0.63689 -1.21872,1.14192 -1.96062,1.49648 -0.718985,0.34359 -2.322152,0.56771 -2.322152,0.56771 l -0.309749,-1.44469 c 0,0 0.924624,-0.44817 1.135424,-0.87746 0.166804,-0.33969 0.165757,-0.79522 0,-1.13543 -0.220051,-0.45164 -1.187208,-0.92876 -1.187208,-0.92876 0,0 2.530674,-1.08479 3.509361,-2.0124 0.505592,-0.47922 1.134944,-1.75493 1.134944,-1.75493 z m 5.108927,5.05763 c 0,0 1.242719,2.62189 2.219062,3.66376 0.760286,0.81127 2.734991,1.90931 2.734991,1.90931 0,0 -0.733012,0.83315 -1.238514,0.98054 -0.647422,0.18878 -1.377782,0.0219 -2.012403,-0.20617 -0.642015,-0.2308 -1.703136,-1.13542 -1.703136,-1.13542 z m -2.941648,0.6708 -0.103091,5.36689 c 0,0 -1.214842,0.78634 -1.909314,0.87745 -0.605652,0.0794 -1.259778,-0.0368 -1.806225,-0.30974 -0.380994,-0.19034 -0.928765,-0.87746 -0.928765,-0.87746 0,0 1.914472,-0.74691 2.6319,-1.4447 1.000336,-0.9729 2.115495,-3.61244 2.115495,-3.61244 z" /><circle
       style="fill:#d9a741;fill-opacity:1;stroke:#000000;stroke-width:0.194839;stroke-linecap:round;stroke-linejoin:round;stroke-opacity:0.2"
       id="path11398"
       cx="26.458334"
       cy="132.29167"
       r="10.889215" /></g><g
     inkscape:groupmode="layer"
     id="layer4"
     inkscape:label="center"
     sodipodi:insensitive="true"
     style="display:none"><path
       style="fill:none;stroke:#000000;stroke-width:0.264583px;stroke-linecap:butt;stroke-linejoin:miter;stroke-opacity:1"
       d="m 19.843749,125.67708 6.614584,6.61459 6.614583,6.61458"
       id="path1581" /><path
       style="fill:none;stroke:#000000;stroke-width:0.264583px;stroke-linecap:butt;stroke-linejoin:miter;stroke-opacity:1"
       d="m 33.072916,125.67708 -6.614583,6.61459 -6.614584,6.61458"
       id="path1583" /></g></svg>
