<?xml version="1.0" encoding="UTF-8" standalone="no"?>
<!-- Created with Inkscape (http://www.inkscape.org/) -->

<svg
   width="200"
   height="1000"
   viewBox="0 0 52.916666 264.58334"
   version="1.1"
   id="svg5"
   inkscape:version="1.2.1 (9c6d41e410, 2022-07-14)"
   sodipodi:docname="hours-hand.svg"
   xml:space="preserve"
   xmlns:inkscape="http://www.inkscape.org/namespaces/inkscape"
   xmlns:sodipodi="http://sodipodi.sourceforge.net/DTD/sodipodi-0.dtd"
   xmlns:xlink="http://www.w3.org/1999/xlink"
   xmlns="http://www.w3.org/2000/svg"
   xmlns:svg="http://www.w3.org/2000/svg"><sodipodi:namedview
     id="namedview7"
     pagecolor="#ffffff"
     bordercolor="#666666"
     borderopacity="1.0"
     inkscape:showpageshadow="2"
     inkscape:pageopacity="0.0"
     inkscape:pagecheckerboard="0"
     inkscape:deskcolor="#d1d1d1"
     inkscape:document-units="mm"
     showgrid="true"
     inkscape:zoom="0.84096521"
     inkscape:cx="-435.80876"
     inkscape:cy="401.91913"
     inkscape:window-width="1920"
     inkscape:window-height="1027"
     inkscape:window-x="-8"
     inkscape:window-y="-8"
     inkscape:window-maximized="1"
     inkscape:current-layer="layer1"><inkscape:grid
       type="xygrid"
       id="grid182"
       originx="26.458333"
       originy="132.29167"
       spacingx="6.6145834"
       spacingy="6.6145834"
       empcolor="#0077b2"
       empopacity="0.50196078"
       color="#0099e5"
       opacity="0.10196078" /></sodipodi:namedview><defs
     id="defs2"><linearGradient
       inkscape:collect="always"
       id="linearGradient14214"><stop
         style="stop-color:#e5b045;stop-opacity:1;"
         offset="0"
         id="stop14210" /><stop
         style="stop-color:#cc9d3e;stop-opacity:1;"
         offset="1"
         id="stop14212" /></linearGradient><radialGradient
       inkscape:collect="always"
       xlink:href="#linearGradient14214"
       id="radialGradient14216"
       cx="25.974184"
       cy="79.478711"
       fx="25.974184"
       fy="79.478711"
       r="24.671712"
       gradientTransform="matrix(1,0,0,1.9037873,0,-71.831851)"
       gradientUnits="userSpaceOnUse" /></defs><g
     inkscape:label="hours"
     inkscape:groupmode="layer"
     id="layer1"><path
       id="path11168"
       style="fill:url(#radialGradient14216);fill-opacity:1;stroke:#000000;stroke-width:0.264583px;stroke-linecap:butt;stroke-linejoin:miter;stroke-opacity:1"
       d="M 26.473836 32.647103 C 26.242028 32.662128 25.499653 37.129973 25.417053 37.347074 C 25.055108 40.092838 24.757812 41.05809 24.193355 43.882076 C 23.421617 48.259463 22.580534 54.894324 22.580534 54.894324 C 22.580534 54.894324 23.275894 55.309456 23.526213 55.617277 C 23.85056 56.016145 24.193355 57.00789 24.193355 57.00789 C 24.193355 57.00789 23.096028 56.63748 22.52524 56.61825 C 21.60533 56.587239 20.681026 56.797323 19.799825 57.063184 C 19.196112 57.245317 18.511439 57.386422 18.075382 57.841947 C 17.730212 58.202546 17.463294 58.736546 17.519344 59.23256 C 17.552257 59.523835 18.020089 59.955514 18.020089 59.955514 C 18.020089 59.955514 16.910688 60.099387 16.462561 60.400448 C 15.914593 60.768581 15.23938 61.957458 15.23938 61.957458 C 15.23938 61.957458 16.201469 61.387256 16.74058 61.290316 C 17.61811 61.13253 18.531814 61.304201 19.410185 61.457231 C 20.589299 61.662646 21.90092 61.740264 22.858553 62.458203 C 24.018965 63.328165 24.774872 64.740608 25.194845 66.12878 C 25.452575 66.980705 25.343008 67.913175 25.250138 68.798385 C 25.156761 69.688373 24.638289 71.412695 24.638289 71.412695 C 24.638289 71.412695 23.480139 70.621095 22.858553 70.300102 C 22.430274 70.078931 22.005644 69.754513 21.523751 69.744063 C 20.339279 69.718387 19.175476 70.314653 18.187004 70.967761 C 17.125586 71.669077 16.173492 72.627096 15.572693 73.74847 C 15.033263 74.755282 14.695526 75.947812 14.794446 77.085734 C 14.888681 78.169771 15.547857 79.13587 16.073437 80.088652 C 16.639783 81.115307 18.075382 82.980981 18.075382 82.980981 C 18.075382 82.980981 15.366821 82.087373 13.959871 81.924198 C 12.154782 81.714857 10.309138 81.782932 8.5095581 82.035303 C 7.5031432 82.176441 6.4868547 82.392977 5.5619344 82.814067 C 4.9910023 83.073986 4.0044067 83.87085 4.0044067 83.87085 C 4.0044067 83.87085 4.6061352 84.227863 4.8384644 84.482699 C 5.1297804 84.802228 5.5061239 85.594775 5.5061239 85.594775 C 5.5061239 85.594775 4.593425 85.74925 4.1713216 85.928605 C 3.5274525 86.20219 2.8889076 86.549172 2.3915853 87.041199 C 2.0004106 87.428199 1.5017171 88.431295 1.5017171 88.431295 C 1.5017171 88.431295 2.2347634 88.542401 2.5585002 88.709314 C 2.9445861 88.908373 3.5594727 89.543888 3.5594727 89.543888 C 3.5594727 89.543888 2.9279911 90.712751 2.6696045 91.323625 C 2.3635355 92.047218 1.9955487 92.769641 1.8908407 93.548295 C 1.7125185 94.874378 1.8575889 96.251394 2.1688599 97.552702 C 2.4123708 98.570733 3.3925578 100.44451 3.3925578 100.44451 C 3.3925578 100.44451 2.7526285 101.36138 2.6137939 101.89094 C 2.36457 102.84156 2.3035006 103.88948 2.5585002 104.83856 C 2.8002225 105.73823 4.0044067 107.23015 4.0044067 107.23015 C 4.0044067 107.23015 4.9087798 106.44682 5.2281047 105.95064 C 5.3901913 105.69878 5.4051113 105.37175 5.5619344 105.11658 C 5.8851975 104.5906 6.7851156 103.72597 6.7851156 103.72597 C 6.7851156 103.72597 7.5901259 104.56538 8.064624 104.89437 C 8.8345701 105.4282 10.567314 106.17336 10.567314 106.17336 C 10.567314 106.17336 10.112708 106.64973 10.011275 106.95213 C 9.7930546 107.6027 9.7728725 108.34842 9.9554647 109.00988 C 10.323605 110.34349 11.149988 111.59007 12.180135 112.51355 C 13.056782 113.29933 15.350484 114.07107 15.350484 114.07107 C 15.350484 114.07107 15.560727 115.47401 16.017627 115.96191 C 16.596667 116.58025 17.86079 116.27408 18.353918 116.96289 C 18.63534 117.35598 18.623141 117.95246 18.465023 118.40931 C 18.160334 119.28965 16.935952 119.60861 16.574182 120.46707 C 16.177632 121.40799 16.407267 123.52579 16.407267 123.52579 C 16.407268 123.52579 23.110002 126.13624 26.640751 126.3065 C 29.834182 126.4605 36.095471 124.69368 36.095471 124.69368 C 36.095471 124.69368 35.89997 122.87793 36.151282 122.02408 C 36.390976 121.20966 37.329169 120.68955 37.486084 119.85522 C 37.601016 119.24411 37.502116 118.53373 37.152254 118.01967 C 36.796237 117.49655 35.539433 117.0187 35.539433 117.0187 C 35.539433 117.0187 36.791788 116.62592 37.152254 116.12883 C 37.384913 115.80799 37.37498 114.96094 37.37498 114.96094 C 37.37498 114.96094 38.672339 113.69998 39.321631 113.0701 C 40.50733 111.91986 41.941413 110.98038 42.881104 109.62173 C 43.570689 108.62468 43.684334 107.31238 44.32701 106.28447 C 44.870686 105.41491 46.328955 103.94869 46.328955 103.94869 C 46.328955 103.94869 47.605371 106.38717 48.609436 107.28544 C 49.110094 107.73334 50.389172 108.23112 50.389172 108.23112 C 50.389172 108.23112 50.020124 107.42795 49.888428 107.00742 C 49.530861 105.86565 49.216284 104.6955 49.110181 103.50376 C 48.990062 102.1546 49.018564 100.77313 49.277096 99.443542 C 49.434899 98.631943 49.9579 97.92024 50.111153 97.107768 C 50.341488 95.88664 50.377468 94.61431 50.222257 93.38138 C 50.063233 92.118088 49.694339 90.869035 49.165474 89.710803 C 48.798119 88.906265 47.719568 87.486133 47.719568 87.486133 C 47.719568 87.486133 49.092497 86.919203 49.555115 86.373539 C 49.7488 86.145085 49.888428 85.539482 49.888428 85.539482 C 49.888428 85.539482 48.247753 85.04843 47.441549 84.760718 C 46.352131 84.371923 45.337663 83.763956 44.215906 83.481726 C 42.96707 83.167523 41.665087 82.998652 40.377897 83.036792 C 39.418225 83.065229 37.541895 83.53702 37.541895 83.53702 C 37.541895 83.53702 37.494194 82.293962 37.652999 81.70199 C 37.749667 81.341639 38.153227 80.7005 38.153227 80.7005 C 38.153227 80.7005 37.553889 81.137807 37.208065 81.256539 C 36.801356 81.396171 35.928556 81.423454 35.928556 81.423454 C 35.928556 81.423454 37.088828 79.927973 37.263359 79.031868 C 37.520517 77.711497 37.177302 76.307294 36.763131 75.027462 C 36.359508 73.780244 35.801116 72.50415 34.871773 71.57961 C 34.154313 70.865858 33.204046 70.276155 32.202169 70.133187 C 31.50741 70.034046 30.768048 70.256253 30.144413 70.578121 C 29.631335 70.842934 28.865422 71.746008 28.865422 71.746008 C 28.865422 71.746008 28.157088 70.185911 27.975553 69.35494 C 27.761296 68.374226 27.696938 67.353792 27.752828 66.351506 C 27.803236 65.447527 27.789784 64.459463 28.253573 63.681901 C 28.510152 63.251714 28.926697 62.814382 29.42146 62.736222 C 29.676517 62.695931 30.144413 63.014242 30.144413 63.014242 L 29.42146 64.237939 C 29.42146 64.237939 31.06852 63.560403 31.757235 63.014242 C 32.179476 62.679384 32.814018 61.790544 32.814018 61.790544 C 32.814018 61.790544 33.550972 62.331989 33.981905 62.347099 C 34.539277 62.366639 35.11682 62.099168 35.539433 61.73525 C 35.961102 61.372126 36.33494 60.844487 36.37349 60.289343 C 36.431687 59.451365 35.9726 58.59287 35.428328 57.953052 C 35.03486 57.490492 34.47793 57.02089 33.870801 57.00789 C 33.447735 56.998833 32.758724 57.619222 32.758724 57.619222 C 32.758724 57.619222 32.00472 56.955438 31.535026 56.840975 C 30.721302 56.642671 29.848225 56.873943 29.032336 57.063184 C 28.529262 57.179862 27.585913 57.619222 27.585913 57.619222 C 27.585913 57.619222 28.34262 55.679994 28.587402 54.671598 C 28.941186 53.214226 29.202555 51.721064 29.254545 50.222257 C 29.343518 47.657321 28.86821 46.760213 28.531592 44.215906 C 28.07878 40.996686 28.024896 36.298743 26.473836 32.647103 z M 20.967712 73.859574 C 20.967712 73.859574 21.91084 74.740344 22.19141 75.305998 C 22.495215 75.918468 22.636344 77.307943 22.636344 77.307943 C 22.636344 77.307943 23.515296 76.586221 23.860042 76.140055 C 24.326865 75.535922 24.972119 74.137594 24.972119 74.137594 L 24.74991 88.765125 C 24.74991 88.765125 22.950478 87.413402 22.358325 86.484644 C 21.611372 85.313074 20.994235 83.925171 21.023523 82.536047 C 21.052843 81.145449 22.52524 78.642745 22.52524 78.642745 C 22.52524 78.642745 21.292426 79.742483 20.522778 79.810632 C 19.932715 79.862882 18.854146 79.198783 18.854146 79.198783 C 18.854146 79.198783 18.327095 77.417818 18.465023 76.529179 C 18.582019 75.775402 18.909138 74.992749 19.465995 74.471423 C 19.860572 74.102038 20.967712 73.859574 20.967712 73.859574 z M 33.703886 73.915385 C 33.703886 73.915385 34.510055 75.884984 34.48265 76.918819 C 34.45173 78.085184 33.917548 79.197452 33.425867 80.255566 C 33.250303 80.633381 32.758724 81.312349 32.758724 81.312349 C 32.758724 81.312349 32.290038 80.212054 31.868856 79.810632 C 31.352567 79.318587 29.977498 78.80966 29.977498 78.80966 C 29.977498 78.80966 30.617578 79.880413 30.756262 80.478292 C 30.974135 81.417554 30.983756 82.421313 30.812073 83.370105 C 30.623888 84.410097 30.174823 85.403714 29.644185 86.317729 C 29.226993 87.036351 28.086658 88.26438 28.086658 88.26438 L 28.142468 74.026489 C 28.142468 74.026489 28.825013 74.572351 29.08763 74.916357 C 29.495252 75.450324 30.033309 76.696094 30.033309 76.696094 C 30.033309 76.696094 31.194722 75.472281 31.868856 74.972168 C 32.435807 74.551554 33.703886 73.915385 33.703886 73.915385 z M 8.5648519 86.985388 C 8.5648516 86.985388 8.2717176 88.90663 8.5095581 89.821908 C 8.703884 90.569722 9.6774455 91.823853 9.6774455 91.823853 C 9.6774455 91.823853 10.532735 90.643136 11.068058 90.155737 C 11.64982 89.626073 12.227847 88.846605 13.014193 88.820935 C 13.70376 88.798425 14.793929 89.877718 14.793929 89.877718 C 14.793929 89.877718 16.895596 89.478517 17.908984 89.710803 C 19.105999 89.985179 20.337785 90.556101 21.134627 91.49054 C 21.773884 92.240167 22.1312 93.286074 22.1356 94.271248 C 22.139089 95.056912 21.846659 95.881634 21.356836 96.495919 C 20.879016 97.095134 19.410185 97.719617 19.410185 97.719617 C 19.410185 97.719617 19.235432 97.005427 19.021061 96.718644 C 18.712466 96.305806 18.304937 95.862665 17.797363 95.772965 C 17.375895 95.698488 16.574182 96.162089 16.574182 96.162089 C 16.574182 96.162089 15.803201 95.60487 15.350484 95.55024 C 14.935244 95.500134 14.476016 95.598093 14.126786 95.828259 C 13.70571 96.105791 13.236918 97.051957 13.236918 97.051957 C 13.236918 97.051957 12.660152 96.509528 12.291239 96.440108 C 11.565897 96.303622 10.762485 96.517605 10.12238 96.885042 C 9.4961501 97.244518 8.676473 98.498381 8.676473 98.498381 L 6.9520304 96.551729 C 6.9520304 96.551729 7.6277425 96.229207 7.8418986 95.93988 C 8.0616624 95.642985 8.1757284 94.883097 8.1757284 94.883097 C 8.1757284 94.883097 6.9816322 93.545394 6.7298218 92.713721 C 6.4773235 91.879779 6.5005595 90.940553 6.7298218 90.099927 C 7.0468865 88.937355 7.8974505 87.597179 8.5648519 86.985388 z M 41.101367 86.985388 C 41.323836 87.041008 43.170026 87.397676 43.882076 88.097465 C 44.87173 89.070078 45.220673 90.575256 45.494897 91.935474 C 45.711063 93.007706 45.612845 94.1295 45.494897 95.216927 C 45.410978 95.990588 44.994153 97.496891 44.994153 97.496891 C 44.994153 97.496891 43.404816 97.196814 42.602568 97.218872 C 41.51185 97.248862 40.352795 97.286809 39.376925 97.77491 C 38.966406 97.98024 38.375952 98.720589 38.375952 98.720589 C 38.375952 98.720589 37.603234 97.489403 37.04115 97.051957 C 36.510808 96.639216 35.87648 96.257165 35.205603 96.2179 C 34.719806 96.18947 34.219085 96.390929 33.815507 96.662834 C 33.455257 96.905546 32.980933 97.663806 32.980933 97.663806 C 32.980933 97.663806 32.404034 96.708888 31.92415 96.495919 C 31.517462 96.315434 30.589347 96.495919 30.589347 96.495919 L 29.75529 94.493457 C 29.75529 94.493457 31.300368 92.902873 32.202169 92.268787 C 33.043406 91.677284 34.927584 90.82288 34.927584 90.82288 C 34.927584 90.82288 36.597403 92.17271 37.597188 92.491512 C 38.499549 92.779248 39.48836 92.716433 40.433708 92.658427 C 41.562469 92.589167 43.770972 92.046578 43.770972 92.046578 C 43.770972 92.046578 43.317984 90.408132 42.936397 89.654993 C 42.448328 88.69169 41.101367 86.985388 41.101367 86.985388 z M 11.87266 98.304077 C 12.58143 98.308816 13.348022 98.44257 13.348022 98.44257 L 14.348995 99.999581 L 16.351457 99.999581 C 16.351457 99.999581 15.900387 101.34988 15.461589 101.89094 C 14.919743 102.55906 14.190723 103.10043 13.403833 103.44795 C 12.662096 103.77553 11.80277 104.07332 11.012248 103.89288 C 10.003653 103.66267 8.5095581 102.05785 8.5095581 102.05785 C 8.5095581 102.05785 9.8507468 102.10188 10.344588 101.72402 C 10.687051 101.46199 10.901143 100.55614 10.901143 100.55614 L 9.5105306 99.443542 C 9.5105306 99.443542 10.466208 98.563681 11.068058 98.386759 C 11.250424 98.333151 11.484134 98.309948 11.7321 98.305111 C 11.778595 98.304204 11.825409 98.303761 11.87266 98.304077 z M 40.767537 99.276628 C 40.767537 99.276628 41.655923 100.2347 42.213444 100.55614 C 42.670544 100.81968 43.715161 101.05636 43.715161 101.05636 C 43.715161 101.05636 43.007561 101.9544 42.547274 102.28006 C 41.883437 102.74973 41.115972 103.1026 40.322603 103.28103 C 39.399977 103.48854 38.346757 103.72868 37.486084 103.33684 C 36.408076 102.84607 35.205603 100.61143 35.205603 100.61143 L 36.930046 99.888477 C 36.930046 99.888477 37.478162 100.57214 37.875208 100.66724 C 38.373862 100.7867 38.911755 100.54915 39.376925 100.33341 C 39.905027 100.08848 40.767537 99.276628 40.767537 99.276628 z M 29.75529 99.999581 C 29.75529 99.999581 30.690473 101.35409 31.257007 101.94623 C 32.011862 102.7352 32.820956 103.50209 33.759696 104.0598 C 34.683163 104.60844 36.763131 105.22769 36.763131 105.22769 C 36.763131 105.22769 36.073613 106.01923 35.928556 106.50719 C 35.791206 106.96922 35.807065 107.48665 35.928556 107.9531 C 36.110553 108.65186 36.985339 109.84394 36.985339 109.84394 C 36.985339 109.84394 34.305387 109.54068 33.203658 108.84297 C 32.158842 108.1813 31.335833 107.12677 30.812073 106.00645 C 29.951087 104.1648 29.75529 99.999581 29.75529 99.999581 z M 22.1356 100.88945 C 22.1356 101.11192 22.306644 103.71089 21.968685 105.06077 C 21.658566 106.29945 21.107711 107.52011 20.300053 108.50914 C 19.73952 109.19554 18.986583 109.73984 18.187004 110.12196 C 17.412121 110.49227 15.684314 110.73381 15.684314 110.73381 L 15.350484 109.1768 C 15.350484 109.1768 16.346993 108.69379 16.574182 108.23112 C 16.753954 107.86502 16.752826 107.37408 16.574182 107.00742 C 16.337023 106.52067 15.294674 106.00645 15.294674 106.00645 C 15.294674 106.00645 18.022097 104.83732 19.076872 103.83759 C 19.621772 103.32112 20.300053 101.94623 20.300053 101.94623 L 22.1356 100.88945 z M 27.641724 106.34028 C 27.641724 106.34028 28.981059 109.16601 30.033309 110.28888 C 30.852704 111.16323 32.980933 112.34663 32.980933 112.34663 C 32.980933 112.34663 32.190933 113.24456 31.64613 113.40341 C 30.948374 113.60686 30.161231 113.42705 29.477271 113.18121 C 28.785343 112.93247 27.641724 111.95751 27.641724 111.95751 L 27.641724 106.34028 z M 24.471375 107.06323 L 24.36027 112.84738 C 24.36027 112.84738 23.050979 113.69485 22.302515 113.79305 C 21.649776 113.87865 20.944794 113.75342 20.355863 113.45922 C 19.945249 113.25409 19.354891 112.51355 19.354891 112.51355 C 19.354891 112.51355 21.418205 111.70857 22.19141 110.95653 C 23.269518 109.90799 24.471375 107.06323 24.471375 107.06323 z " /><circle
       style="fill:#d9a741;fill-opacity:1;stroke:#000000;stroke-width:0.194839;stroke-linecap:round;stroke-linejoin:round;stroke-opacity:1"
       id="path11398"
       cx="26.458334"
       cy="132.29167"
       r="10.889215" /></g><g
     inkscape:groupmode="layer"
     id="layer4"
     inkscape:label="center"
     sodipodi:insensitive="true"
     style="display:none"><path
       style="fill:none;stroke:#000000;stroke-width:0.264583px;stroke-linecap:butt;stroke-linejoin:miter;stroke-opacity:1"
       d="m 19.843749,125.67708 6.614584,6.61459 6.614583,6.61458"
       id="path1581" /><path
       style="fill:none;stroke:#000000;stroke-width:0.264583px;stroke-linecap:butt;stroke-linejoin:miter;stroke-opacity:1"
       d="m 33.072916,125.67708 -6.614583,6.61459 -6.614584,6.61458"
       id="path1583" /></g></svg>
