<?xml version="1.0" encoding="UTF-8" standalone="no"?>
<!-- Created with Inkscape (http://www.inkscape.org/) -->

<svg
   width="200"
   height="1000"
   viewBox="0 0 52.916666 264.58334"
   version="1.1"
   id="svg5"
   inkscape:version="1.2.1 (9c6d41e410, 2022-07-14)"
   sodipodi:docname="minutes-hand.svg"
   xml:space="preserve"
   xmlns:inkscape="http://www.inkscape.org/namespaces/inkscape"
   xmlns:sodipodi="http://sodipodi.sourceforge.net/DTD/sodipodi-0.dtd"
   xmlns:xlink="http://www.w3.org/1999/xlink"
   xmlns="http://www.w3.org/2000/svg"
   xmlns:svg="http://www.w3.org/2000/svg"><sodipodi:namedview
     id="namedview7"
     pagecolor="#ffffff"
     bordercolor="#666666"
     borderopacity="1.0"
     inkscape:showpageshadow="2"
     inkscape:pageopacity="0.0"
     inkscape:pagecheckerboard="0"
     inkscape:deskcolor="#d1d1d1"
     inkscape:document-units="mm"
     showgrid="true"
     inkscape:zoom="1.564"
     inkscape:cx="-101.9821"
     inkscape:cy="367.64706"
     inkscape:window-width="1920"
     inkscape:window-height="1027"
     inkscape:window-x="-8"
     inkscape:window-y="-8"
     inkscape:window-maximized="1"
     inkscape:current-layer="layer2"><inkscape:grid
       type="xygrid"
       id="grid182"
       originx="26.458333"
       originy="132.29167"
       spacingx="2.6458333"
       spacingy="2.6458333"
       empcolor="#0077b2"
       empopacity="0.50196078"
       color="#0099e5"
       opacity="0.10196078" /></sodipodi:namedview><defs
     id="defs2"><linearGradient
       inkscape:collect="always"
       id="linearGradient13805"><stop
         style="stop-color:#e5b045;stop-opacity:1;"
         offset="0"
         id="stop13801" /><stop
         style="stop-color:#cc9d3d;stop-opacity:1;"
         offset="1"
         id="stop13803" /></linearGradient><radialGradient
       inkscape:collect="always"
       xlink:href="#linearGradient13805"
       id="radialGradient13807"
       cx="24.944264"
       cy="62.732719"
       fx="24.944264"
       fy="62.732719"
       r="16.060732"
       gradientTransform="matrix(1,0,0,3.5895003,0,-162.4464)"
       gradientUnits="userSpaceOnUse" /></defs><g
     inkscape:groupmode="layer"
     id="layer4"
     inkscape:label="center"
     sodipodi:insensitive="true"
     style="display:none"><path
       style="fill:none;stroke:#000000;stroke-width:0.264583px;stroke-linecap:butt;stroke-linejoin:miter;stroke-opacity:1"
       d="m 19.843749,125.67708 6.614584,6.61459 6.614583,6.61458"
       id="path1581" /><path
       style="fill:none;stroke:#000000;stroke-width:0.264583px;stroke-linecap:butt;stroke-linejoin:miter;stroke-opacity:1"
       d="m 33.072916,125.67708 -6.614583,6.61459 -6.614584,6.61458"
       id="path1583" /></g><g
     inkscape:groupmode="layer"
     id="layer2"
     inkscape:label="minute"
     style="display:inline"><path
       id="path8473"
       style="display:inline;fill:url(#radialGradient13807);fill-opacity:1;stroke:#000000;stroke-width:0.264583px;stroke-linecap:butt;stroke-linejoin:miter;stroke-opacity:1"
       d="m 26.286251,5.2250043 c -0.952073,8.2490717 -0.989879,18.6738267 -2.940906,22.5862207 -0.879268,1.697431 -3.468005,4.567163 -3.468005,4.567163 0,0 1.257633,-0.410658 1.903243,-0.549321 0.682227,-0.14653 1.491221,-0.681766 2.072741,-0.296106 1.567327,1.039444 1.437639,5.455481 1.437639,5.455481 0,0 -1.673805,-0.817592 -2.579688,-0.97255 -0.639347,-0.109365 -1.336293,-0.17999 -1.945617,0.04237 -0.612204,0.223421 -1.522388,1.226282 -1.522388,1.226282 0,0 1.293744,-0.179298 1.818494,0.127124 0.729308,0.425889 1.119845,1.316396 1.39578,2.1146 0.448285,1.296799 0.382192,2.730673 0.338481,4.102075 -0.03087,0.968445 -0.07883,1.970646 -0.42323,2.87631 -0.191791,0.504354 -0.888318,1.352889 -0.888318,1.352889 0,0 -1.379158,-1.540892 -2.325956,-1.776119 -0.665779,-0.165407 -1.419866,0.02457 -2.029851,0.338481 -0.443174,0.22807 -1.0573,1.0573 -1.0573,1.0573 0,0 1.193037,-0.335711 1.733745,-0.127124 1.162883,0.448596 1.905204,1.659 2.580204,2.706811 1.061868,1.648346 1.665092,3.569281 2.198832,5.455998 0.206301,0.72924 0.65545,1.534847 0.380856,2.241207 -0.232964,0.599249 -0.893897,1.048887 -1.522388,1.184424 -0.765413,0.165056 -2.284098,-0.549838 -2.284098,-0.549838 0,0 0.179762,0.949996 0.497127,1.279509 0.60995,0.6333 1.581745,0.784318 2.421041,1.046448 0.480297,0.150001 1.480529,0.296106 1.480529,0.296106 0,0 -1.195428,0.492206 -1.649511,0.930692 -0.8557,0.82631 -1.428468,1.936602 -1.860869,3.044776 -0.52761,1.352195 -0.964312,2.824923 -0.845943,4.271573 0.06876,0.84034 0.493013,1.623603 0.888318,2.368331 0.25125,0.473344 0.930176,1.311031 0.930176,1.311031 0,0 -1.274708,1.563186 -1.733744,2.453081 -0.664293,1.287779 -1.230365,2.668541 -1.438156,4.102592 -0.163939,1.131461 -0.05031,2.303573 0.168982,3.42563 0.229195,1.172693 0.693788,2.293757 1.184424,3.383256 0.225464,0.500657 0.803569,1.438155 0.803569,1.438155 0,0 -2.174128,0.673362 -3.129525,1.268657 -1.508345,0.939817 -2.883024,2.150998 -3.975468,3.552755 -1.027183,1.318009 -1.693692,2.893998 -2.326473,4.440555 -0.552238,1.349716 -1.2686564,4.186831 -1.2686564,4.186831 0.8749564,-0.69116 1.5919794,-0.57388 2.6220624,-0.16899 0,0 -1.404243,1.32442 -1.860869,2.15699 -0.5662036,1.0324 -1.0149246,3.38327 -1.0149246,3.38327 1.7707306,-0.36707 2.9035036,-1.15336 4.0602176,-2.53732 0,0 1.599132,0.82361 2.283581,1.39578 0.911639,0.7622 2.368331,2.66444 2.368331,2.66444 0,0 -0.904885,1.33668 -1.226282,2.07223 -0.276807,0.63352 -0.605881,1.29625 -0.592212,1.98747 0.02415,1.2213 0.526795,2.43861 1.184424,3.46801 0.713956,1.11756 1.752787,2.04384 2.875794,2.74918 1.427981,0.89689 3.061408,1.58361 4.736661,1.77612 2.485892,0.28567 5.165623,0.0632 7.443474,-0.97255 2.054757,-0.93426 3.681165,-2.70762 5.075142,-4.48293 0.954122,-1.21512 1.658143,-2.64038 2.156974,-4.10259 0.896521,-2.62789 1.575978,-5.43149 1.438156,-8.20468 -0.140249,-2.821827 -1.037805,-5.626738 -2.284099,-8.162305 -0.946481,-1.925601 -2.67629,-3.362656 -3.848344,-5.159891 -0.672433,-1.03112 -1.818493,-3.214275 -1.818493,-3.214275 0,0 0.791686,0.198714 1.099674,0 0.546075,-0.35231 0.912307,-1.135502 0.803052,-1.776119 -0.147517,-0.864955 -1.818494,-1.903243 -1.818494,-1.903243 0,0 0.90332,-1.837623 1.0573,-2.833935 0.213439,-1.381034 0.140295,-2.834365 -0.211356,-4.186825 -0.296686,-1.141032 -0.807928,-2.267925 -1.564763,-3.171899 -0.427162,-0.510218 -1.607137,-1.183907 -1.607137,-1.183907 0,0 1.597177,-1.384425 1.987992,-2.326473 0.476888,-1.1495 0.557923,-2.505206 0.29559,-3.721737 -0.196856,-0.912858 -0.765009,-1.72751 -1.352889,-2.45308 -0.434144,-0.535816 -1.565279,-1.353406 -1.565279,-1.353406 0,0 1.845832,-1.096046 2.580204,-1.860868 0.725754,-0.755846 1.331339,-1.654538 1.733744,-2.622062 0.400808,-0.963684 0.192195,-2.120647 0.634587,-3.065963 0.278553,-0.595237 1.226281,-1.543575 1.226281,-1.543575 0,0 -1.384865,0.103535 -1.945101,0.465088 -0.599428,0.386842 -0.62039,1.514552 -1.311547,1.691369 -1.266112,0.32392 -2.463286,-0.910503 -3.594613,-1.564762 -1.352187,-0.781986 -3.764111,-2.791044 -3.764111,-2.791044 0,0 1.322101,-3.087956 2.495455,-4.229199 0.542797,-0.527951 1.520947,-0.503258 1.987475,-1.099675 0.368715,-0.471353 0.678848,-1.175101 0.465605,-1.734261 -0.17416,-0.45667 -0.749032,-0.700485 -1.226799,-0.803568 -0.446317,-0.0963 -0.975761,0.467985 -1.353405,0.211356 -1.11169,-0.755429 -0.752685,-2.595827 -0.887802,-3.933093 -0.205528,-2.034211 -1.429589,-4.806346 0.126608,-6.132442 0.465858,-0.396984 1.22452,0.106039 1.818493,0.253731 0.640528,0.159266 1.860869,0.676961 1.860869,0.676961 0,0 -1.756978,-2.306306 -2.283582,-3.637504 -0.962461,-2.747976 -1.12319,-3.434552 -1.401573,-5.211907 -0.969259,-6.1883 -0.669535,-18.7505328 -0.902162,-18.7695727 z m 3.445784,57.6889877 c 0,0 1.278975,0.757955 1.564763,1.39578 0.397734,0.88769 0.332581,2.004069 0,2.918168 -0.195023,0.536011 -1.099675,1.311031 -1.099675,1.311031 0,0 -0.772438,-1.089781 -1.353406,-1.353406 -0.771964,-0.350288 -2.537829,-0.168981 -2.537829,-0.168981 0,0 1.124934,0.468447 1.48053,0.930175 0.288374,0.374461 0.519205,0.890733 0.422713,1.353406 -0.114258,0.54787 -0.575624,1.07222 -1.099675,1.268657 -0.759804,0.284801 -1.606413,-0.445347 -2.410705,-0.337964 -0.532098,0.07104 -1.042142,0.323536 -1.480013,0.634069 -0.374389,0.265515 -0.930693,1.014926 -0.930693,1.014926 0,0 -1.206339,-1.679134 -1.352889,-2.664437 -0.179013,-1.20356 0.08391,-2.509295 0.63407,-3.594613 0.41476,-0.818188 1.903243,-1.987992 1.903243,-1.987992 0,0 0.978655,0.553094 1.522388,0.634586 1.148651,0.172157 2.391983,0.09879 3.468005,-0.33848 0.501761,-0.203907 1.269173,-1.014925 1.269173,-1.014925 z m -2.669604,9.234578 c 0.5028,-0.0032 1.00764,0.06325 1.48518,0.196887 0.996884,0.278965 1.987185,0.778259 2.706812,1.522388 0.574207,0.593758 1.021241,1.382237 1.142049,2.199349 0.06713,0.454041 0.08391,1.043052 -0.254248,1.353406 -0.313142,0.287391 -0.855087,0.22464 -1.268656,0.126607 -0.665969,-0.157859 -1.056611,-1.000056 -1.733745,-1.099675 -0.362088,-0.05327 -1.057299,0.296106 -1.057299,0.296106 0,0 1.072206,0.44462 1.141532,0.930693 0.07012,0.491644 -0.390225,1.027729 -0.845426,1.226282 -0.71818,0.313248 -1.640402,0.03995 -2.326473,-0.338481 -0.893064,-0.492588 -1.444772,-1.462438 -1.987476,-2.325956 -0.483663,-0.769563 -1.099674,-2.495455 -1.099674,-2.495455 0,0 1.940879,-1.245213 3.044775,-1.480013 0.310427,-0.06603 0.630361,-0.102552 0.95188,-0.110588 0.03349,-8.37e-4 0.06725,-0.0013 0.100769,-0.0015 z m -5.45083,4.087606 c 0,0 1.608022,2.839573 2.579687,4.144966 0.572517,0.769157 1.903243,2.156458 1.903243,2.156458 0,0 -1.061112,1.537442 -1.480013,2.368848 -0.415809,0.825275 -1.014925,2.579687 -1.014925,2.579687 0,0 -1.926075,-1.05822 -2.580204,-1.903243 -0.902178,-1.165458 -1.550713,-2.632059 -1.649512,-4.102592 -0.07312,-1.088259 0.3515,-2.179283 0.803569,-3.171899 0.348474,-0.765163 1.438155,-2.072225 1.438155,-2.072225 z m 5.709729,8.07806 c 0,0 1.87665,1.090758 2.622062,1.860868 0.799486,0.825975 1.903243,2.875794 1.903243,2.875794 0,0 -2.043802,-0.150354 -2.87631,-0.676445 -0.457853,-0.289334 -0.55598,-0.981584 -1.014925,-1.269173 -0.539028,-0.337766 -1.860869,-0.422713 -1.860869,-0.422713 z m -6.309693,5.493204 c 0.259933,0.0029 0.521198,0.03725 0.768946,0.0894 1.110498,0.233735 3.045292,1.522387 3.045292,1.522387 0,0 -1.249722,0.549919 -1.776119,0.972551 -0.467426,0.37528 -1.184424,1.353406 -1.184424,1.353406 0,0 1.250664,0.440384 1.903243,0.465604 0.870778,0.03365 1.734528,-0.635588 2.579688,-0.42323 0.965343,0.24256 1.710503,1.071512 2.36833,1.818494 0.647187,0.734896 1.125959,1.62503 1.48053,2.53783 0.193233,0.497448 0.338481,1.564762 0.338481,1.564762 l -1.819011,0.04238 c 0,0 -1.001635,-1.151801 -1.607137,-1.607137 -0.74636,-0.561268 -1.523919,-1.25495 -2.452563,-1.353406 -0.922486,-0.0978 -1.917319,0.253697 -2.664437,0.803568 -0.466062,0.34302 -0.845723,0.873656 -0.973067,1.438155 -0.144347,0.639875 -0.05456,1.390756 0.296106,1.945106 0.363707,0.57497 1.016336,1.06144 1.691886,1.14206 0.642245,0.0766 1.442447,-0.1502 1.818494,-0.67645 0.311565,-0.43602 0.04237,-1.607147 0.04237,-1.607147 0,0 1.145351,0.107366 1.480013,0.507457 0.356899,0.42669 0.33056,1.09807 0.253731,1.64901 -0.102808,0.73724 -0.403,1.50486 -0.930176,2.03037 -0.965104,0.96209 -2.35908,1.67776 -3.721737,1.69189 -1.856551,0.0192 -3.676733,-1.02832 -5.117517,-2.19935 -0.895331,-0.7277 -1.883165,-1.68495 -1.987992,-2.83395 -0.06763,-0.741292 0.334289,-1.58444 0.930692,-2.029851 0.559087,-0.417537 2.072225,-0.296106 2.072225,-0.296106 0,0 -1.469236,-1.083344 -1.649511,-1.903243 -0.283605,-1.289852 0.419399,-2.673992 1.099674,-3.805969 0.657334,-1.093798 1.578457,-2.15663 2.749186,-2.664437 0.265449,-0.115138 0.557342,-0.166371 0.853695,-0.173633 0.03704,-9.07e-4 0.07397,-9.37e-4 0.111104,-5.17e-4 z m 9.713619,3.092318 c 0.06399,7e-6 0.126728,0.0012 0.187586,0.0036 0.139103,0.0055 0.269162,0.01758 0.383956,0.03824 1.558214,0.28047 3.100558,0.970333 4.313431,1.987992 0.814856,0.683701 1.819011,2.622063 1.819011,2.622063 0,0 -1.48746,0.296476 -2.199349,0.549837 -0.718916,0.255862 -2.072225,0.97255 -2.072225,0.97255 0,0 -1.238629,-2.251457 -2.030367,-3.256132 -0.771279,-0.978714 -2.622062,-2.664437 -2.622062,-2.664437 0,0 1.260171,-0.253833 2.220019,-0.253731 z m 6.915341,7.273972 c 0,0 0.923728,1.54349 1.057299,2.41072 0.239596,1.55561 -0.127073,3.16752 -0.507462,4.69481 -0.330262,1.32601 -1.522388,3.80597 -1.522388,3.80597 l -4.271574,-2.02985 c 0,0 0.775563,-2.23574 1.0573,-3.38325 0.245935,-1.00169 0.555694,-2.01388 0.549837,-3.04531 -0.0021,-0.37324 -0.211873,-1.09968 -0.211873,-1.09968 z m -6.851262,1.18443 c 0,0 0.592979,0.91453 0.676445,1.43765 0.288733,1.80963 0.0885,3.79079 -0.676445,5.456 -0.699852,1.52355 -1.879648,2.98106 -3.383773,3.72174 -1.078659,0.53117 -2.489825,0.77054 -3.594612,0.29611 -0.764704,-0.32839 -1.564763,-1.94562 -1.564763,-1.94562 l 0.253732,-2.57969 c 0,0 2.776753,-0.48129 3.848344,-1.31103 0.933663,-0.72294 1.517094,-1.86021 1.945617,-2.96055 0.222885,-0.5723 0.296106,-1.8185 0.296106,-1.8185 z m -11.292334,8.88165 c 0,0 0.131043,0.71625 0.253731,1.0573 0.249701,0.69412 0.469584,1.44786 0.972551,1.98747 0.766627,0.82248 1.835762,1.3876 2.918168,1.69189 1.1946,0.33583 2.517739,0.38462 3.721737,0.0842 1.145222,-0.28573 2.189246,-0.96822 3.087666,-1.73374 0.465882,-0.39696 0.634205,-1.09652 1.14205,-1.43816 0.499697,-0.33616 1.733744,-0.50746 1.733744,-0.50746 l 2.376599,1.13533 c 0,0 -0.170312,0.58231 -0.304374,0.85266 -0.171977,0.34681 -0.350143,0.70942 -0.63407,0.97255 -0.967159,0.89632 -2.23658,1.43167 -3.468005,1.90324 -1.446623,0.55398 -2.981235,0.93299 -4.525305,1.0573 -1.225436,0.0987 -2.493797,0.0697 -3.679879,-0.25373 -1.246906,-0.34007 -2.492602,-0.88632 -3.468006,-1.73426 -0.58138,-0.50541 -1.098953,-1.16215 -1.311031,-1.90272 -0.170944,-0.59694 -0.140752,-1.28233 0.08475,-1.86087 0.207144,-0.53144 1.099674,-1.31103 1.099674,-1.31103 z"
       sodipodi:nodetypes="cccsscsscccsscsscssssscsscsssscsssscsssccsccccssssscssssscsscssscssscssscscscscsscsssccaccsscscssssscsscssccsssssscsscscssscccscsssccscssccsscscssssccssssssscssccssscssssssssscscscscssscsscccssssccsscccssssssccsssssssscsscs" /><path
       style="display:inline;fill:#cc9d3d;fill-opacity:1;stroke:#000000;stroke-width:0.264583px;stroke-linecap:butt;stroke-linejoin:miter;stroke-opacity:1"
       d="m 19.843749,125.67708 -1.852083,-5.55625 c 0,0 5.482357,-2.91041 8.466667,-2.91041 2.98431,0 8.466666,2.91041 8.466666,2.91041 l -1.852083,5.55625 z"
       id="path8283"
       sodipodi:nodetypes="ccaccc" /><circle
       style="display:inline;fill:#d9a741;fill-opacity:1;stroke:#000000;stroke-width:0.234349;stroke-linecap:round;stroke-linejoin:round;stroke-opacity:1"
       id="path7999"
       cx="26.458334"
       cy="132.29167"
       r="10.545715" /></g></svg>
