<?xml version="1.0" encoding="UTF-8" standalone="no"?>
<!-- Created with Inkscape (http://www.inkscape.org/) -->

<svg
   width="200"
   height="1000"
   viewBox="0 0 52.916666 264.58334"
   version="1.1"
   id="svg5"
   inkscape:version="1.2.1 (9c6d41e410, 2022-07-14)"
   sodipodi:docname="minutes-hand.svg"
   xml:space="preserve"
   xmlns:inkscape="http://www.inkscape.org/namespaces/inkscape"
   xmlns:sodipodi="http://sodipodi.sourceforge.net/DTD/sodipodi-0.dtd"
   xmlns:xlink="http://www.w3.org/1999/xlink"
   xmlns="http://www.w3.org/2000/svg"
   xmlns:svg="http://www.w3.org/2000/svg"><sodipodi:namedview
     id="namedview7"
     pagecolor="#ffffff"
     bordercolor="#666666"
     borderopacity="1.0"
     inkscape:showpageshadow="2"
     inkscape:pageopacity="0.0"
     inkscape:pagecheckerboard="0"
     inkscape:deskcolor="#d1d1d1"
     inkscape:document-units="mm"
     showgrid="true"
     inkscape:zoom="1.564"
     inkscape:cx="-32.928389"
     inkscape:cy="300.51151"
     inkscape:window-width="1920"
     inkscape:window-height="1027"
     inkscape:window-x="-8"
     inkscape:window-y="-8"
     inkscape:window-maximized="1"
     inkscape:current-layer="layer2"><inkscape:grid
       type="xygrid"
       id="grid182"
       originx="26.458333"
       originy="132.29167"
       spacingx="2.6458333"
       spacingy="2.6458333"
       empcolor="#0077b2"
       empopacity="0.50196078"
       color="#0099e5"
       opacity="0.10196078" /></sodipodi:namedview><defs
     id="defs2"><linearGradient
       inkscape:collect="always"
       id="linearGradient13805"><stop
         style="stop-color:#ffc44d;stop-opacity:1;"
         offset="0"
         id="stop13801" /><stop
         style="stop-color:#cc9d3d;stop-opacity:1;"
         offset="1"
         id="stop13803" /></linearGradient><radialGradient
       inkscape:collect="always"
       xlink:href="#linearGradient13805"
       id="radialGradient13807"
       cx="24.944264"
       cy="62.732719"
       fx="24.944264"
       fy="62.732719"
       r="16.060732"
       gradientTransform="matrix(0.9528324,0,0,3.4201922,1.1765609,-147.06271)"
       gradientUnits="userSpaceOnUse" /></defs><g
     inkscape:groupmode="layer"
     id="layer4"
     inkscape:label="center"
     sodipodi:insensitive="true"
     style="display:none"><path
       style="fill:none;stroke:#000000;stroke-width:0.264583px;stroke-linecap:butt;stroke-linejoin:miter;stroke-opacity:1"
       d="m 19.843749,125.67708 6.614584,6.61459 6.614583,6.61458"
       id="path1581" /><path
       style="fill:none;stroke:#000000;stroke-width:0.264583px;stroke-linecap:butt;stroke-linejoin:miter;stroke-opacity:1"
       d="m 33.072916,125.67708 -6.614583,6.61459 -6.614584,6.61458"
       id="path1583" /></g><g
     inkscape:groupmode="layer"
     id="layer2"
     inkscape:label="minute"
     style="display:inline"><g
       id="g2612"
       style="stroke-width:0.26458333;stroke-dasharray:none"><path
         id="path8473"
         style="display:inline;fill:url(#radialGradient13807);fill-opacity:1;stroke:#000000;stroke-width:0.26458333;stroke-linecap:butt;stroke-linejoin:miter;stroke-opacity:1;stroke-dasharray:none"
         d="m 26.222953,12.700007 c -0.907166,7.859984 -0.943189,17.793028 -2.802191,21.520884 -0.837795,1.617367 -3.304427,4.351741 -3.304427,4.351741 0,0 1.198313,-0.391288 1.813471,-0.523411 0.650048,-0.139619 1.420884,-0.649609 1.974975,-0.282139 1.4934,0.990415 1.369829,5.198159 1.369829,5.198159 0,0 -1.594856,-0.779029 -2.45801,-0.926678 -0.609191,-0.104206 -1.273264,-0.1715 -1.853847,0.04037 -0.583328,0.212883 -1.450581,1.168441 -1.450581,1.168441 0,0 1.232721,-0.170841 1.73272,0.121128 0.694908,0.405801 1.067025,1.254305 1.329945,2.014859 0.42714,1.235633 0.364165,2.601874 0.322515,3.90859 -0.02941,0.922766 -0.07511,1.877696 -0.403267,2.740642 -0.182745,0.480565 -0.846418,1.289076 -0.846418,1.289076 0,0 -1.314107,-1.468212 -2.216246,-1.692343 -0.634376,-0.157606 -1.352895,0.02341 -1.934108,0.322515 -0.422271,0.217313 -1.00743,1.00743 -1.00743,1.00743 0,0 1.136764,-0.319876 1.651968,-0.121128 1.108033,0.427437 1.815341,1.580749 2.458502,2.579137 1.011783,1.570598 1.586554,3.400927 2.095119,5.198652 0.19657,0.694844 0.624534,1.462452 0.362892,2.135495 -0.221976,0.570984 -0.851734,0.999413 -1.450581,1.128557 -0.72931,0.157271 -2.176362,-0.523903 -2.176362,-0.523903 0,0 0.171283,0.905187 0.473678,1.219157 0.58118,0.603429 1.507138,0.747324 2.306847,0.99709 0.457642,0.142926 1.410696,0.282139 1.410696,0.282139 0,0 -1.139043,0.46899 -1.571708,0.886794 -0.815339,0.787335 -1.361091,1.845257 -1.773096,2.901161 -0.502724,1.288415 -0.918828,2.691678 -0.806042,4.070093 0.06552,0.800703 0.469759,1.547022 0.846418,2.256623 0.239399,0.451017 0.886302,1.249193 0.886302,1.249193 0,0 -1.214583,1.489454 -1.651968,2.337375 -0.632959,1.227037 -1.172331,2.542672 -1.370321,3.909082 -0.156207,1.078093 -0.04794,2.194919 0.161011,3.264052 0.218385,1.117379 0.661064,2.185566 1.128558,3.223676 0.214829,0.477042 0.765666,1.37032 0.765666,1.37032 0,0 -2.071579,0.641601 -2.981912,1.208818 -1.4372,0.895488 -2.747039,2.04954 -3.787955,3.38518 -0.978733,1.255841 -1.613805,2.757495 -2.216739,4.231106 -0.52619,1.28606 -1.208817,3.98937 -1.208817,3.98937 0.833687,-0.65857 1.51689,-0.54682 2.498386,-0.16102 0,0 -1.338008,1.26196 -1.773096,2.05526 -0.539497,0.9837 -0.9670532,3.22369 -0.9670532,3.22369 1.6872092,-0.34976 2.7665522,-1.09896 3.8687072,-2.41764 0,0 1.523705,0.78476 2.17587,1.32994 0.868639,0.72625 2.256622,2.53876 2.256622,2.53876 0,0 -0.862204,1.27364 -1.168441,1.97449 -0.263751,0.60364 -0.577303,1.23511 -0.564279,1.89373 0.02301,1.16369 0.501948,2.32358 1.128558,3.30443 0.68028,1.06485 1.670112,1.94744 2.740149,2.61951 1.360627,0.85458 2.917009,1.50891 4.513245,1.69234 2.368638,0.2722 4.921973,0.0602 7.092383,-0.92667 1.957839,-0.8902 3.507533,-2.57991 4.83576,-4.27149 0.909118,-1.1578 1.579932,-2.51583 2.055234,-3.90908 0.854235,-2.50393 1.501643,-5.1753 1.370322,-7.81768 -0.133634,-2.68875 -0.988854,-5.361367 -2.176364,-7.777339 -0.901837,-1.834775 -2.550055,-3.204047 -3.666826,-4.916511 -0.640716,-0.982485 -1.73272,-3.062665 -1.73272,-3.062665 0,0 0.754345,0.189341 1.047805,0 0.520318,-0.335693 0.869276,-1.081943 0.765174,-1.692344 -0.140559,-0.824157 -1.73272,-1.813472 -1.73272,-1.813472 0,0 0.860713,-1.750946 1.00743,-2.700265 0.203372,-1.315894 0.133678,-2.700675 -0.201387,-3.989342 -0.282692,-1.087213 -0.76982,-2.160953 -1.490957,-3.022289 -0.407013,-0.486152 -1.531332,-1.128064 -1.531332,-1.128064 0,0 1.521842,-1.319125 1.894223,-2.216739 0.454395,-1.095281 0.531608,-2.387042 0.281648,-3.546192 -0.187571,-0.869801 -0.728925,-1.646027 -1.289076,-2.337374 -0.413667,-0.510543 -1.491449,-1.289569 -1.491449,-1.289569 0,0 1.758769,-1.044348 2.458502,-1.773096 0.691522,-0.720194 1.268543,-1.576497 1.651968,-2.498385 0.381902,-0.918229 0.183129,-2.020621 0.604655,-2.921349 0.265414,-0.567161 1.16844,-1.470768 1.16844,-1.470768 0,0 -1.319544,0.09865 -1.853355,0.443151 -0.571155,0.368595 -0.591128,1.443114 -1.249685,1.611591 -1.206392,0.308641 -2.347099,-0.867557 -3.425064,-1.490956 -1.288407,-0.745102 -3.586567,-2.659397 -3.586567,-2.659397 0,0 1.259741,-2.942305 2.377751,-4.029718 0.517194,-0.503049 1.449207,-0.479521 1.89373,-1.047806 0.351324,-0.449121 0.646829,-1.119674 0.443644,-1.65246 -0.165945,-0.43513 -0.713702,-0.667445 -1.168934,-0.765666 -0.425265,-0.09176 -0.929737,0.445911 -1.289568,0.201387 -1.059254,-0.719797 -0.717183,-2.473388 -0.845927,-3.747578 -0.195833,-1.938263 -1.362158,-4.579643 0.120637,-5.84319 0.443884,-0.378259 1.166762,0.101037 1.732719,0.241763 0.610316,0.151754 1.773096,0.645031 1.773096,0.645031 0,0 -1.674106,-2.197524 -2.175871,-3.465932 -0.917064,-2.618359 -1.070212,-3.272551 -1.335464,-4.966072 -0.923541,-5.896413 -0.637955,-17.866117 -0.859609,-17.884258 z m 3.283254,54.967938 c 0,0 1.218649,0.722204 1.490957,1.329944 0.378974,0.84582 0.316894,1.909542 0,2.780525 -0.185824,0.510729 -1.047806,1.249193 -1.047806,1.249193 0,0 -0.736004,-1.038379 -1.289569,-1.289569 -0.735552,-0.333766 -2.418126,-0.161011 -2.418126,-0.161011 0,0 1.071874,0.446352 1.410697,0.886301 0.274773,0.356799 0.494716,0.84872 0.402775,1.289569 -0.108869,0.522029 -0.548473,1.021646 -1.047806,1.208818 -0.723966,0.271367 -1.530642,-0.424341 -2.296998,-0.322023 -0.507,0.06769 -0.992986,0.308275 -1.410204,0.604161 -0.35673,0.252992 -0.886795,0.967055 -0.886795,0.967055 0,0 -1.149438,-1.599934 -1.289076,-2.538762 -0.170569,-1.146791 0.07995,-2.390938 0.604162,-3.425064 0.395197,-0.779596 1.813472,-1.894223 1.813472,-1.894223 0,0 0.932494,0.527006 1.450581,0.604654 1.094472,0.164037 2.279159,0.09413 3.304427,-0.322515 0.478094,-0.194289 1.209309,-0.967053 1.209309,-0.967053 z m -2.543685,8.799005 c 0.479084,-0.003 0.960112,0.06027 1.415128,0.1876 0.949863,0.265807 1.893454,0.741551 2.579138,1.450581 0.547123,0.565752 0.973071,1.31704 1.088181,2.095611 0.06396,0.432625 0.07995,0.993854 -0.242255,1.289569 -0.298372,0.273835 -0.814755,0.214044 -1.208817,0.120635 -0.634557,-0.150413 -1.006773,-0.952886 -1.651968,-1.047806 -0.34501,-0.05076 -1.007429,0.28214 -1.007429,0.28214 0,0 1.021632,0.423648 1.087689,0.886794 0.06681,0.468454 -0.37182,0.979254 -0.80555,1.168441 -0.684305,0.298473 -1.563028,0.03807 -2.216739,-0.322515 -0.85094,-0.469354 -1.376625,-1.393459 -1.893731,-2.216247 -0.46085,-0.733264 -1.047805,-2.37775 -1.047805,-2.37775 0,0 1.849332,-1.186479 2.90116,-1.410204 0.295785,-0.06292 0.600628,-0.09771 0.906982,-0.105372 0.03191,-7.98e-4 0.06408,-0.0012 0.09602,-0.0014 z m -5.193727,3.894803 c 0,0 1.532175,2.705638 2.458009,3.949458 0.545513,0.732878 1.813472,2.054743 1.813472,2.054743 0,0 -1.011062,1.464925 -1.410205,2.257116 -0.396196,0.786348 -0.967053,2.458009 -0.967053,2.458009 0,0 -1.835227,-1.008306 -2.458502,-1.813472 -0.859625,-1.110486 -1.47757,-2.507911 -1.571709,-3.909082 -0.06967,-1.036929 0.334921,-2.076492 0.765667,-3.022288 0.332037,-0.729073 1.370321,-1.974484 1.370321,-1.974484 z m 5.440415,7.697038 c 0,0 1.788132,1.039309 2.498385,1.773095 0.761776,0.787016 1.813472,2.74015 1.813472,2.74015 0,0 -1.947401,-0.143262 -2.740642,-0.644539 -0.436257,-0.275687 -0.529755,-0.935285 -0.967053,-1.209309 -0.513603,-0.321834 -1.773096,-0.402775 -1.773096,-0.402775 z m -6.01208,5.234103 c 0.247672,0.0028 0.496614,0.03549 0.732676,0.08518 1.058119,0.22271 2.901653,1.450579 2.901653,1.450579 0,0 -1.190775,0.523981 -1.692344,0.926679 -0.445378,0.357578 -1.128557,1.289569 -1.128557,1.289569 0,0 1.191673,0.419612 1.813471,0.443642 0.829706,0.03206 1.652715,-0.605609 2.458011,-0.403267 0.91981,0.231119 1.629822,1.020971 2.256621,1.73272 0.616661,0.700237 1.072851,1.548384 1.410697,2.418134 0.184119,0.47399 0.322516,1.49096 0.322516,1.49096 l -1.733213,0.0404 c 0,0 -0.95439,-1.09748 -1.531332,-1.53134 -0.711156,-0.5348 -1.452039,-1.19576 -2.336881,-1.289577 -0.878975,-0.0932 -1.826884,0.241737 -2.538762,0.765677 -0.444079,0.32684 -0.805833,0.83245 -0.92717,1.37032 -0.137539,0.6097 -0.05199,1.32517 0.282139,1.85337 0.346552,0.54786 0.968398,1.01139 1.612084,1.08821 0.611952,0.073 1.37441,-0.14312 1.73272,-0.64455 0.296869,-0.41546 0.04037,-1.53136 0.04037,-1.53136 0,0 1.091327,0.10231 1.410204,0.48353 0.340065,0.40657 0.314968,1.04628 0.241763,1.57124 -0.09796,0.70247 -0.383991,1.43388 -0.886302,1.93461 -0.919582,0.91671 -2.247808,1.59862 -3.546191,1.61208 -1.768982,0.0183 -3.503311,-0.97981 -4.876136,-2.09561 -0.853101,-0.69338 -1.794341,-1.60548 -1.894224,-2.70029 -0.06444,-0.70633 0.318522,-1.50971 0.886794,-1.93412 0.532716,-0.39784 1.974483,-0.28214 1.974483,-0.28214 0,0 -1.399936,-1.03225 -1.571707,-1.813477 -0.270229,-1.229014 0.399616,-2.547868 1.047805,-3.626452 0.626329,-1.042206 1.504005,-2.054907 2.619513,-2.538762 0.252928,-0.109707 0.531054,-0.158524 0.813428,-0.165443 0.03529,-8.64e-4 0.07048,-8.93e-4 0.105864,-4.93e-4 z m 9.255451,2.94646 c 0.06097,7e-6 0.12075,0.0011 0.178738,0.0034 0.132541,0.0052 0.256466,0.01675 0.365845,0.03644 1.484717,0.267241 2.954312,0.924565 4.109977,1.894223 0.776421,0.651452 1.733213,2.498393 1.733213,2.498393 0,0 -1.4173,0.28249 -2.095611,0.5239 -0.685007,0.2438 -1.974483,0.92668 -1.974483,0.92668 0,0 -1.180206,-2.145267 -1.9346,-3.102555 -0.7349,-0.93255 -2.498386,-2.538762 -2.498386,-2.538762 0,0 1.200732,-0.24186 2.115307,-0.241763 z m 6.589161,6.930896 c 0,0 0.880157,1.47069 1.007428,2.29702 0.228295,1.48224 -0.121079,3.01812 -0.483526,4.47337 -0.314684,1.26346 -1.450581,3.62645 -1.450581,3.62645 l -4.070094,-1.93411 c 0,0 0.738982,-2.13028 1.00743,-3.22367 0.234335,-0.95444 0.529483,-1.91889 0.523902,-2.90167 -0.002,-0.35563 -0.201879,-1.04781 -0.201879,-1.04781 z m -6.528105,1.12857 c 0,0 0.56501,0.87139 0.644539,1.36984 0.275114,1.72427 0.08432,3.61199 -0.644539,5.19865 -0.666842,1.45169 -1.790989,2.84045 -3.224169,3.5462 -1.027781,0.50611 -2.372385,0.73419 -3.425062,0.28214 -0.728635,-0.3129 -1.490957,-1.85385 -1.490957,-1.85385 l 0.241764,-2.45801 c 0,0 2.64578,-0.45859 3.666827,-1.24919 0.889624,-0.68884 1.445536,-1.77247 1.853847,-2.82091 0.212372,-0.54531 0.282139,-1.73273 0.282139,-1.73273 z m -10.759702,8.46272 c 0,0 0.124862,0.68247 0.241763,1.00743 0.237924,0.66138 0.447435,1.37957 0.926679,1.89373 0.730467,0.78369 1.749173,1.32215 2.780525,1.61209 1.138253,0.31999 2.398983,0.36648 3.546191,0.0802 1.091205,-0.27226 2.085985,-0.92255 2.942028,-1.65197 0.443908,-0.37823 0.604291,-1.0448 1.088183,-1.37032 0.476127,-0.32031 1.651967,-0.48353 1.651967,-0.48353 l 2.264501,1.08178 c 0,0 -0.162279,0.55485 -0.290018,0.81244 -0.163865,0.33046 -0.333627,0.67596 -0.604162,0.92668 -0.921541,0.85404 -2.131086,1.36414 -3.304428,1.81347 -1.378389,0.52785 -2.840617,0.88898 -4.311857,1.00743 -1.167635,0.094 -2.376171,0.0664 -3.506308,-0.24176 -1.188092,-0.32403 -2.375032,-0.84452 -3.304428,-1.65246 -0.553958,-0.48157 -1.047118,-1.10734 -1.249193,-1.81297 -0.162881,-0.56879 -0.134113,-1.22185 0.08075,-1.7731 0.197374,-0.50638 1.047805,-1.24919 1.047805,-1.24919 z"
         sodipodi:nodetypes="cccsscsscccsscsscssssscsscsssscsssscsssccsccccssssscssssscsscssscssscssscscscscsscsssccaccsscscssssscsscssccsssssscsscscssscccscsssccscssccsscscssssccssssssscssccssscssssssssscscscscssscsscccssssccsscccssssssccsssssssscsscs" /><path
         style="display:inline;fill:#cc9d3d;fill-opacity:1;stroke:#000000;stroke-width:0.26458333;stroke-linecap:butt;stroke-linejoin:miter;stroke-opacity:1;stroke-dasharray:none"
         d="m 20.568731,126.27143 -1.649088,-4.94726 c 0,0 4.881471,-2.59142 7.53869,-2.59142 2.657219,0 7.538689,2.59142 7.538689,2.59142 l -1.649088,4.94726 z"
         id="path8283"
         sodipodi:nodetypes="ccaccc" /><circle
         style="display:inline;fill:#d9a741;fill-opacity:1;stroke:#000000;stroke-width:0.26458333;stroke-linecap:round;stroke-linejoin:round;stroke-opacity:1;stroke-dasharray:none"
         id="path7999"
         cx="26.458334"
         cy="132.29167"
         r="8.8894119" /></g></g></svg>
