<?xml version="1.0" encoding="UTF-8" standalone="no"?>
<!-- Created with Inkscape (http://www.inkscape.org/) -->

<svg
   width="200"
   height="1000"
   viewBox="0 0 52.916666 264.58334"
   version="1.1"
   id="svg5"
   inkscape:version="1.2.1 (9c6d41e410, 2022-07-14)"
   sodipodi:docname="seconds-hand.svg"
   xmlns:inkscape="http://www.inkscape.org/namespaces/inkscape"
   xmlns:sodipodi="http://sodipodi.sourceforge.net/DTD/sodipodi-0.dtd"
   xmlns="http://www.w3.org/2000/svg"
   xmlns:svg="http://www.w3.org/2000/svg">
  <sodipodi:namedview
     id="namedview7"
     pagecolor="#ffffff"
     bordercolor="#666666"
     borderopacity="1.0"
     inkscape:showpageshadow="2"
     inkscape:pageopacity="0.0"
     inkscape:pagecheckerboard="0"
     inkscape:deskcolor="#d1d1d1"
     inkscape:document-units="mm"
     showgrid="true"
     inkscape:zoom="3.3638608"
     inkscape:cx="3.1214133"
     inkscape:cy="478.61671"
     inkscape:window-width="1920"
     inkscape:window-height="1027"
     inkscape:window-x="-8"
     inkscape:window-y="-8"
     inkscape:window-maximized="1"
     inkscape:current-layer="layer3">
    <inkscape:grid
       type="xygrid"
       id="grid182"
       originx="26.458333"
       originy="132.29167"
       spacingx="2.6458333"
       spacingy="2.6458333"
       empcolor="#0077b2"
       empopacity="0.50196078"
       color="#0099e5"
       opacity="0.10196078" />
  </sodipodi:namedview>
  <defs
     id="defs2" />
  <g
     inkscape:groupmode="layer"
     id="layer4"
     inkscape:label="center"
     sodipodi:insensitive="true"
     style="display:none">
    <path
       style="fill:none;stroke:#000000;stroke-width:0.264583px;stroke-linecap:butt;stroke-linejoin:miter;stroke-opacity:1"
       d="m 19.843749,125.67708 6.614584,6.61459 6.614583,6.61458"
       id="path1581" />
    <path
       style="fill:none;stroke:#000000;stroke-width:0.264583px;stroke-linecap:butt;stroke-linejoin:miter;stroke-opacity:1"
       d="m 33.072916,125.67708 -6.614583,6.61459 -6.614584,6.61458"
       id="path1583" />
  </g>
  <g
     inkscape:groupmode="layer"
     id="layer3"
     inkscape:label="second"
     style="display:inline">
    <path
       id="path1284"
       style="fill:#b23535;fill-opacity:1;stroke:#000000;stroke-width:0.250359px;stroke-linecap:butt;stroke-linejoin:miter;stroke-opacity:0.5"
       inkscape:label="sec"
       d="M 26.458333,6.7343826 25.907542,39.030801 c 0,0 -0.363823,1.064406 -0.701007,1.502159 -0.397739,0.516368 -1.50216,1.251798 -1.50216,1.251798 0,0 1.147103,0.705204 1.50216,1.2518 0.283498,0.436436 0.425611,1.502158 0.425611,1.502158 l -0.456229,36.051805 c 0,0 -1.255047,5.065653 -2.89973,6.970244 -1.770892,2.050744 -6.970245,4.182146 -6.970245,4.182146 0,0 5.134236,2.189489 6.970245,4.182146 1.348464,1.463519 2.643247,5.352933 2.643247,5.352933 l -0.256484,3.84781 -0.958574,16.27339 -1.123787,10.51511 h 7.755489 l -1.123787,-10.51511 -0.958576,-16.27339 -0.256483,-3.84781 c 0,0 1.294784,-3.889414 2.643247,-5.352933 1.83601,-1.992657 6.970246,-4.182146 6.970246,-4.182146 0,0 -5.199353,-2.131402 -6.970246,-4.182146 -1.644682,-1.904591 -2.89973,-6.970244 -2.89973,-6.970244 L 27.28452,44.538716 c 0,0 0.142114,-1.065722 0.425611,-1.502158 0.355057,-0.546596 1.50216,-1.2518 1.50216,-1.2518 0,0 -1.104421,-0.73543 -1.50216,-1.251798 -0.337183,-0.437753 -0.701007,-1.502159 -0.701007,-1.502159 z m 0,79.4323334 c 0,0 0.981383,2.654241 1.951669,3.624527 0.970286,0.970286 3.624527,1.951668 3.624527,1.951668 0,0 -2.65424,0.981383 -3.624527,1.951669 -0.970284,0.970285 -1.951669,3.624527 -1.951669,3.624527 0,0 -0.981384,-2.654242 -1.951668,-3.624527 -0.970287,-0.970286 -3.624527,-1.951669 -3.624527,-1.951669 0,0 2.654241,-0.981382 3.624527,-1.951668 0.970286,-0.970286 1.951668,-3.624527 1.951668,-3.624527 z"
       sodipodi:nodetypes="ccacaccscsccccccccscsccacacccscscscsc" />
    <circle
       style="fill:#b23535;fill-opacity:1;stroke:#000000;stroke-width:0.139982;stroke-linecap:round;stroke-linejoin:round;stroke-opacity:0.5"
       id="path4933"
       cx="26.458334"
       cy="132.29167"
       r="6.999095" />
  </g>
</svg>
