<?xml version="1.0" encoding="UTF-8" standalone="no"?>
<!-- Created with Inkscape (http://www.inkscape.org/) -->

<svg
   width="200"
   height="1000"
   viewBox="0 0 52.916666 264.58334"
   version="1.1"
   id="svg5"
   inkscape:version="1.2.1 (9c6d41e410, 2022-07-14)"
   sodipodi:docname="seconds-hand.svg"
   xmlns:inkscape="http://www.inkscape.org/namespaces/inkscape"
   xmlns:sodipodi="http://sodipodi.sourceforge.net/DTD/sodipodi-0.dtd"
   xmlns="http://www.w3.org/2000/svg"
   xmlns:svg="http://www.w3.org/2000/svg">
  <sodipodi:namedview
     id="namedview7"
     pagecolor="#ffffff"
     bordercolor="#666666"
     borderopacity="1.0"
     inkscape:showpageshadow="2"
     inkscape:pageopacity="0.0"
     inkscape:pagecheckerboard="0"
     inkscape:deskcolor="#d1d1d1"
     inkscape:document-units="mm"
     showgrid="true"
     inkscape:zoom="19.02887"
     inkscape:cx="89.732074"
     inkscape:cy="141.6269"
     inkscape:window-width="1920"
     inkscape:window-height="1027"
     inkscape:window-x="-8"
     inkscape:window-y="-8"
     inkscape:window-maximized="1"
     inkscape:current-layer="layer3">
    <inkscape:grid
       type="xygrid"
       id="grid182"
       originx="26.458333"
       originy="132.29167"
       spacingx="2.6458333"
       spacingy="2.6458333"
       empcolor="#0077b2"
       empopacity="0.50196078"
       color="#0099e5"
       opacity="0.10196078" />
  </sodipodi:namedview>
  <defs
     id="defs2" />
  <g
     inkscape:groupmode="layer"
     id="layer4"
     inkscape:label="center"
     sodipodi:insensitive="true"
     style="display:none">
    <path
       style="fill:none;stroke:#000000;stroke-width:0.264583px;stroke-linecap:butt;stroke-linejoin:miter;stroke-opacity:1"
       d="m 19.843749,125.67708 6.614584,6.61459 6.614583,6.61458"
       id="path1581" />
    <path
       style="fill:none;stroke:#000000;stroke-width:0.264583px;stroke-linecap:butt;stroke-linejoin:miter;stroke-opacity:1"
       d="m 33.072916,125.67708 -6.614583,6.61459 -6.614584,6.61458"
       id="path1583" />
  </g>
  <g
     inkscape:groupmode="layer"
     id="layer3"
     inkscape:label="second"
     style="display:inline">
    <path
       id="path1284"
       style="fill:#b23535;fill-opacity:1;stroke:#000000;stroke-width:0.264583px;stroke-linecap:butt;stroke-linejoin:miter;stroke-opacity:1"
       inkscape:label="sec"
       d="M 26.458333,0 25.87625,34.131255 c 0,0 -0.384493,1.124877 -0.740833,1.5875 -0.420335,0.545704 -1.587501,1.322916 -1.587501,1.322916 0,0 1.212273,0.745268 1.587501,1.322917 0.299604,0.461231 0.449791,1.5875 0.449791,1.5875 L 25.10306,78.052083 c 0,0 -1.32635,5.353445 -3.064471,7.366241 -1.871501,2.167252 -7.366241,4.419744 -7.366241,4.419744 0,0 5.425924,2.313879 7.366241,4.419744 1.425074,1.546665 2.793416,5.657044 2.793416,5.657044 l -0.271055,4.066394 -1.013033,17.19792 -3.704167,11.1125 h 13.229167 l -3.704167,-11.1125 -1.013035,-17.19792 -0.271054,-4.066394 c 0,0 1.368343,-4.110379 2.793416,-5.657044 1.940318,-2.105865 7.366242,-4.419744 7.366242,-4.419744 0,0 -5.49474,-2.252492 -7.366242,-4.419744 -1.73812,-2.012796 -3.064471,-7.366241 -3.064471,-7.366241 L 27.331458,39.952088 c 0,0 0.150187,-1.126269 0.449791,-1.5875 0.375228,-0.577649 1.587501,-1.322917 1.587501,-1.322917 0,0 -1.167166,-0.777212 -1.587501,-1.322916 -0.35634,-0.462623 -0.740833,-1.5875 -0.740833,-1.5875 z m 0,83.945076 c 0,0 1.037138,2.805034 2.062548,3.830445 1.02541,1.02541 3.830445,2.062547 3.830445,2.062547 0,0 -2.805034,1.037137 -3.830445,2.062548 -1.025408,1.025409 -2.062548,3.830445 -2.062548,3.830445 0,0 -1.037139,-2.805036 -2.062547,-3.830445 -1.025411,-1.025411 -3.830445,-2.062548 -3.830445,-2.062548 0,0 2.805035,-1.037137 3.830445,-2.062547 1.02541,-1.025411 2.062547,-3.830445 2.062547,-3.830445 z"
       sodipodi:nodetypes="ccacaccscsccccccccscsccacacccscscscsc" />
    <circle
       style="fill:#b23535;fill-opacity:1;stroke:#000000;stroke-width:0.17269;stroke-linecap:round;stroke-linejoin:round"
       id="path4933"
       cx="26.458334"
       cy="132.29167"
       r="8.6344891" />
  </g>
</svg>
